<?xml version="1.0" encoding="UTF-8"?>
<svg width="32px" height="32px" viewBox="0 0 32 32" version="1.1" xmlns="http://www.w3.org/2000/svg" xmlns:xlink="http://www.w3.org/1999/xlink">
    <!-- Generator: Sketch 61.2 (89653) - https://sketch.com -->
    <title>ic_plus</title>
    <desc>Created with Sketch.</desc>
    <g id="ic_plus" stroke="none" stroke-width="1" fill="none" fill-rule="evenodd">
        <g id="ic_plus_normal">
            <rect id="矩形" x="0" y="0" width="32" height="32"></rect>
            <path d="M16,0 C17.1045695,0 18,0.8954305 18,2 L18,14 L30,14 C31.1045695,14 32,14.8954305 32,16 C32,17.1045695 31.1045695,18 30,18 L18,18 L18,30 C18,31.1045695 17.1045695,32 16,32 C14.8954305,32 14,31.1045695 14,30 L13.999,18 L2,18 C0.8954305,18 1.3527075e-16,17.1045695 0,16 C-1.3527075e-16,14.8954305 0.8954305,14 2,14 L14,14 L14,2 C14,0.8954305 14.8954305,0 16,0 Z" id="形状结合" fill="#FFFFFF"></path>
        </g>
    </g>
</svg>