<?xml version="1.0" encoding="UTF-8"?>
<svg width="66px" height="66px" viewBox="0 0 66 66" version="1.1" xmlns="http://www.w3.org/2000/svg" xmlns:xlink="http://www.w3.org/1999/xlink">
    <!-- Generator: Sketch 61.2 (89653) - https://sketch.com -->
    <title>ic_twt_1</title>
    <desc>Created with Sketch.</desc>
    <g id="ic_twt_1" stroke="none" stroke-width="1" fill="none" fill-rule="evenodd">
        <g id="存钱罐">
            <rect id="矩形" fill="#000000" fill-rule="nonzero" opacity="0" x="0" y="0" width="66" height="66"></rect>
            <g id="编组-25" transform="translate(8.000000, 9.000000)" fill="#FFFFFF">
                <path d="M49.6901686,32.0003267 C49.8940909,32.710961 50,33.439632 50,34.1819752 C50,41.8134596 38.8071187,48 25,48 C11.1928813,48 0,41.8134596 0,34.1819752 C0,33.439632 0.105909125,32.710961 0.309831398,32.0003267 C2.20228388,38.5949108 12.5359517,43.6364132 25,43.6364132 C37.3837044,43.6364132 47.664405,38.6596968 49.6525215,32.1273749 Z" id="形状结合"></path>
                <path d="M49.6901686,22.0003267 C49.8940909,22.710961 50,23.439632 50,24.1819752 C50,31.8134596 38.8071187,38 25,38 C11.1928813,38 0,31.8134596 0,24.1819752 C0,23.439632 0.105909125,22.710961 0.309831398,22.0003267 C2.20228388,28.5949108 12.5359517,33.6364132 25,33.6364132 C37.3837044,33.6364132 47.664405,28.6596968 49.6525215,22.1273749 Z" id="形状结合备份-2"></path>
                <path d="M25,28 C38.8071187,28 50,21.7319865 50,14 C50,6.2680135 38.8071187,0 25,0 C11.1928813,0 0,6.2680135 0,14 C0,21.7319865 11.1928813,28 25,28 Z M17.9053254,20 L17.9053254,10.4831461 L20,10.4831461 L20,9 L14,9 L14,10.4831461 L16.0946746,10.4831461 L16.0946746,20 L17.9053254,20 Z M24.600713,20 L25.973262,12.8623596 L26.0089127,12.8623596 L27.399287,20 L29.1105169,20 L31,9 L29.0748663,9 L28.201426,16.1530899 L28.1657754,16.1530899 L26.6862745,9 L25.2959002,9 L23.8698752,15.9831461 L23.8342246,15.9831461 L22.9251337,9 L21,9 L22.8894831,20 L24.600713,20 Z M34.9053254,20 L34.9053254,10.4831461 L37,10.4831461 L37,9 L31,9 L31,10.4831461 L33.0946746,10.4831461 L33.0946746,20 L34.9053254,20 Z" id="形状结合"></path>
            </g>
        </g>
    </g>
</svg>