<?xml version="1.0" encoding="UTF-8"?>
<svg width="44px" height="44px" viewBox="0 0 44 44" version="1.1" xmlns="http://www.w3.org/2000/svg" xmlns:xlink="http://www.w3.org/1999/xlink">
    <!-- Generator: Sketch 61.2 (89653) - https://sketch.com -->
    <title>ic_language_english</title>
    <desc>Created with Sketch.</desc>
    <g id="ic_language_english" stroke="none" stroke-width="1" fill="none" fill-rule="evenodd">
        <path d="M39.4166667,3 C40.2875,3 41,3.7125 41,4.58333333 L41,39.4166667 C41,40.2875 40.2875,41 39.4166667,41 L4.58333333,41 C3.7125,41 3,40.2875 3,39.4166667 L3,4.58333333 C3,3.7125 3.7125,3 4.58333333,3 L39.4166667,3 Z M21.3579148,13 L8,13 L8,31.0154975 L21.702507,31.0154975 L21.702507,27.9793608 L11.6368447,27.9793608 L11.6368447,23.0782353 L20.6814586,23.0782353 L20.6814586,20.0421762 L11.6368447,20.0421762 L11.6368447,16.046847 L21.3579148,16.046847 L21.3579148,13 Z M30.6730802,17.6703885 C28.9446864,17.6703885 27.5118348,18.4065275 26.3728178,19.8819098 L26.3728178,19.8819098 L26.3728178,17.9646112 L23.1656269,17.9646112 L23.1656269,31.0155751 L26.6182234,31.0155751 L26.6182234,25.1045771 C26.6182234,23.6477437 26.7061565,22.6472622 26.8821779,22.1060817 C27.0570352,21.5649788 27.3842425,21.1309013 27.8593762,20.8037716 C28.3359069,20.4748567 28.8707232,20.3114859 29.4684821,20.3114859 C29.8941183,20.299047 30.313061,20.4194889 30.6671041,20.6560781 C31.0045088,20.8916594 31.2570128,21.2297012 31.3871776,21.6200825 C31.5338621,22.0337484 31.6076701,22.9459088 31.6076701,24.3552443 L31.6076701,24.3552443 L31.6076701,31.0155751 L35.0603442,31.0155751 L35.0603442,22.9054735 C35.0603442,21.8969204 34.9958496,21.1231402 34.869732,20.5819597 C34.7441576,20.0407792 34.5177667,19.5578845 34.1936638,19.1315681 C33.8711131,18.7052517 33.3930302,18.3562356 32.7619763,18.0806395 C32.1313881,17.8072164 31.4361501,17.6703885 30.6730802,17.6703885 Z" id="形状结合" fill="#FFFFFF" fill-rule="nonzero"></path>
    </g>
</svg>