<?xml version="1.0" encoding="UTF-8"?>
<svg width="44px" height="44px" viewBox="0 0 44 44" version="1.1" xmlns="http://www.w3.org/2000/svg" xmlns:xlink="http://www.w3.org/1999/xlink">
    <!-- Generator: Sketch 61.2 (89653) - https://sketch.com -->
    <title>ic_language_fanti</title>
    <desc>Created with Sketch.</desc>
    <g id="ic_language_fanti" stroke="none" stroke-width="1" fill="none" fill-rule="evenodd">
        <path d="M39.4166667,3 C40.2875,3 41,3.7125 41,4.58333333 L41,39.4166667 C41,40.2875 40.2875,41 39.4166667,41 L4.58333333,41 C3.7125,41 3,40.2875 3,39.4166667 L3,4.58333333 C3,3.7125 3.7125,3 4.58333333,3 L39.4166667,3 Z M13.729,10.066 C12.8005772,11.7726558 11.5313224,13.2703016 10,14.466 L10,14.466 L11.43,16.149 L12.277,15.412 C12.244,15.852 12.167,16.512 12.068,17.392 L12.068,17.392 L10.242,17.392 L10.242,19.108 L11.848,19.108 C11.76,19.757 11.617,20.736 11.408,22.034 L11.408,22.034 L18.921,22.034 L18.756,22.595 C17.7001527,23.1347527 16.6170323,23.6194032 15.511,24.047 C14.842827,24.2372298 14.1477233,24.3152896 13.454,24.278 L13.454,24.278 L13.872,26.247 L19.526,26.027 C17.7449885,26.7548862 15.9049384,27.3289819 14.026,27.743 C13.3,27.743 12.563,27.721 11.826,27.666 L11.826,27.666 L12.409,29.866 C15.544,29.778 18.36,29.668 21.044,29.525 L21.044,29.525 L21.044,31.725 C21.0670331,31.9326761 20.9920056,32.1392291 20.8410568,32.2837086 C20.690108,32.4281882 20.4804688,32.494102 20.274,32.462 C19.5608601,32.4550035 18.8485658,32.410944 18.14,32.33 L18.14,32.33 L18.613,34.53 L20.934,34.53 C22.683,34.53 23.552,33.815 23.552,32.33 L23.552,32.33 L23.552,29.404 L29.855,29.03 C30.658,29.69 31.263,30.251 31.758,30.724 L31.758,30.724 L33.958,29.25 C32.1204302,27.6931965 30.1596746,26.2879269 28.095,25.048 L28.095,25.048 L26.192,26.258 C26.588,26.511 27.149,26.918 27.886,27.479 C24.498,27.7136667 21.3373333,27.8896667 18.404,28.007 C21.7403922,27.0831859 24.9507415,25.7532368 27.963,24.047 L27.963,24.047 L26.038,22.782 C24.74,23.475 23.629,24.113 22.738,24.575 L22.738,24.575 L17.634,24.762 C19.0464131,24.2844443 20.4246111,23.7111139 21.759,23.046 L21.759,23.046 L21.022,22.485 L21.154,22.034 L22.463,22.034 L22.463,20.637 L21.462,20.637 C21.572,20.021 21.671,19.515 21.671,19.108 L21.671,19.108 L23.288,19.108 L23.288,17.392 L21.803,17.392 C21.88,16.512 21.88,15.566 21.88,14.543 L21.88,14.543 L13.168,14.543 L13.993,13.586 L22.969,13.586 L22.969,11.738 L15.335,11.738 L15.995,10.572 Z M17.216,29.976 C15.0663471,31.0391875 12.7835938,31.8087381 10.429,32.264 L10.429,32.264 L11.43,34.376 C13.9359271,33.7601057 16.3559902,32.8364175 18.635,31.626 L18.635,31.626 Z M26.654,29.877 L25.235,31.923 C27.7207513,32.5066516 30.1445843,33.3281025 32.473,34.376 L32.473,34.376 L33.848,32.176 C31.5172375,31.2133144 29.1110917,30.4443779 26.654,29.877 L26.654,29.877 Z M25.708,10 C24.9195889,12.1536304 23.7203837,14.1336265 22.177,15.83 L22.177,15.83 L23.629,17.579 C24.157,17.0216667 24.553,16.5816667 24.817,16.259 C25.3157217,17.4042178 26.0203951,18.4481784 26.896,19.339 C25.6157501,20.2350735 24.167859,20.8636154 22.639,21.187 L22.639,21.187 L23.882,23.145 C25.6150054,22.7338697 27.2417676,21.9617199 28.656,20.879 C30.0940383,21.8807353 31.6587085,22.6871137 33.309,23.277 L33.309,23.277 L34.552,21.077 C33.0765272,20.6140538 31.65921,19.9829047 30.328,19.196 C31.3785679,17.8281537 32.1282739,16.253771 32.528,14.576 L32.528,14.576 L34.002,14.576 L34.002,12.376 L27.215,12.376 L28.04,10.528 Z M15.412,18.866 L14.862,19.713 C15.7736472,19.9458971 16.664113,20.2549844 17.524,20.637 L17.524,20.637 L13.784,20.637 L14.07,18.866 L15.412,18.866 Z M19.592,18.866 L19.295,20.637 L17.766,20.637 L18.349,19.746 C17.5386757,19.4032194 16.708518,19.1093583 15.863,18.866 L15.863,18.866 L19.592,18.866 Z M30.251,14.477 C29.8561913,15.6756773 29.2488409,16.7935002 28.458,17.777 C27.451407,16.885954 26.6933528,15.7488727 26.258,14.477 L26.258,14.477 Z M15.863,15.918 L15.258,16.776 C16.0485584,17.0108324 16.8176729,17.3125902 17.557,17.678 L17.557,17.678 L14.257,17.678 L14.444,15.918 L15.863,15.918 Z M19.768,15.918 L19.691,17.678 L18.052,17.678 L18.58,16.864 C17.8085101,16.4822019 17.0063672,16.1657602 16.182,15.918 L16.182,15.918 L19.768,15.918 Z" id="形状结合" fill="#FFFFFF" fill-rule="nonzero"></path>
    </g>
</svg>