<?xml version="1.0" encoding="UTF-8"?>
<svg width="44px" height="44px" viewBox="0 0 44 44" version="1.1" xmlns="http://www.w3.org/2000/svg" xmlns:xlink="http://www.w3.org/1999/xlink">
    <!-- Generator: Sketch 61.2 (89653) - https://sketch.com -->
    <title>indicator</title>
    <desc>Created with Sketch.</desc>
    <g id="indicator" stroke="none" stroke-width="1" fill="none" fill-rule="evenodd">
        <path d="M12,22 C12,20.896 11.104,20 10,20 L4,20 C2.896,20 2,20.896 2,22 C2,23.104 2.896,24 4,24 L10,24 C11.104,24 12,23.104 12,22 L12,22 Z M40,20 L34,20 C32.896,20 32,20.896 32,22 C32,23.104 32.896,24 34,24 L40,24 C41.104,24 42,23.104 42,22 C42,20.896 41.104,20 40,20 L40,20 Z M22,32 C20.896,32 20,32.896 20,34 L20,40 C20,41.106 20.896,42 22,42 C23.104,42 24,41.106 24,40 L24,34 C24,32.896 23.104,32 22,32 L22,32 Z M22,2 C20.896,2 20,2.896 20,4 L20,10 C20,11.104 20.896,12 22,12 C23.104,12 24,11.104 24,10 L24,4 C24,2.896 23.104,2 22,2 L22,2 Z M14.732,5.412 C14.18,4.456 12.958,4.126 12,4.68 C11.042,5.232 10.716,6.456 11.268,7.412 L14.268,12.608 C14.82,13.564 16.042,13.892 17,13.34 C17.958,12.788 18.284,11.564 17.732,10.608 L14.732,5.412 Z M29.732,31.392 C29.18,30.436 27.958,30.108 27,30.66 C26.042,31.212 25.716,32.436 26.268,33.392 L29.268,38.588 C29.82,39.544 31.042,39.874 32,39.32 C32.958,38.768 33.284,37.544 32.732,36.588 L29.732,31.392 Z M13.34,27 C12.788,26.042 11.564,25.716 10.608,26.268 L5.412,29.268 C4.456,29.82 4.126,31.042 4.68,32 C5.232,32.958 6.456,33.284 7.412,32.732 L12.608,29.732 C13.564,29.18 13.892,27.958 13.34,27 L13.34,27 Z M30.66,17 C31.212,17.958 32.436,18.284 33.392,17.732 L38.588,14.732 C39.544,14.18 39.874,12.958 39.32,12 C38.768,11.042 37.544,10.716 36.588,11.268 L31.392,14.268 C30.436,14.82 30.108,16.042 30.66,17 L30.66,17 Z M5.412,14.732 L10.608,17.732 C11.564,18.284 12.788,17.958 13.34,17 C13.892,16.042 13.564,14.82 12.608,14.268 L7.412,11.268 C6.456,10.716 5.232,11.042 4.68,12 C4.126,12.958 4.456,14.18 5.412,14.732 L5.412,14.732 Z M38.588,29.268 L33.392,26.268 C32.436,25.716 31.212,26.042 30.66,27 C30.108,27.958 30.436,29.18 31.392,29.732 L36.588,32.732 C37.544,33.284 38.768,32.958 39.32,32 C39.874,31.042 39.544,29.82 38.588,29.268 L38.588,29.268 Z M17,30.66 C16.042,30.108 14.82,30.436 14.268,31.392 L11.268,36.588 C10.716,37.544 11.042,38.768 12,39.32 C12.958,39.874 14.18,39.544 14.732,38.588 L17.732,33.392 C18.284,32.436 17.958,31.212 17,30.66 L17,30.66 Z M27,13.34 C27.958,13.892 29.18,13.564 29.732,12.608 L32.732,7.412 C33.284,6.456 32.958,5.232 32,4.68 C31.042,4.126 29.82,4.456 29.268,5.412 L26.268,10.608 C25.716,11.564 26.042,12.788 27,13.34 L27,13.34 Z" fill="" transform="translate(22.000000, 22.000000) rotate(-180.000000) translate(-22.000000, -22.000000) "></path>
    </g>
</svg>