<?xml version="1.0" encoding="UTF-8"?>
<svg width="28px" height="28px" viewBox="0 0 28 28" version="1.1" xmlns="http://www.w3.org/2000/svg" xmlns:xlink="http://www.w3.org/1999/xlink">
    <!-- Generator: Sketch 61.2 (89653) - https://sketch.com -->
    <title>ic_share</title>
    <desc>Created with Sketch.</desc>
    <g id="ic_share" stroke="none" stroke-width="1" fill="none" fill-rule="evenodd">
        <g id="编组-2">
            <rect id="矩形" fill="#000000" fill-rule="nonzero" opacity="0" x="0" y="0" width="28" height="28"></rect>
            <g id="编组" transform="translate(5.000000, 1.000000)">
                <path d="M13.1676642,10.2424242 L16.3636364,10.2424242 C17.267375,10.2424242 18,11.0263028 18,11.993266 L18,24.2491582 C18,25.2161214 17.267375,26 16.3636364,26 L1.63636364,26 C0.732624955,26 0,25.2161214 0,24.2491582 L0,11.993266 C0,11.0263028 0.732624955,10.2424242 1.63636364,10.2424242 L4.99793153,10.2424242" id="路径" stroke="#FFFFFF" stroke-width="2" stroke-linecap="round" stroke-linejoin="round"></path>
                <path d="M9.77481014,0.949598964 L12.1682373,3.88295752 C12.5173884,4.31087335 12.453537,4.94081056 12.0256212,5.28996166 C11.8471207,5.43560627 11.6238068,5.51515152 11.3934272,5.51515152 L6.60657282,5.51515152 C6.05428807,5.51515152 5.60657282,5.06743626 5.60657282,4.51515152 C5.60657282,4.2847719 5.68611807,4.06145799 5.83176268,3.88295752 L8.22518986,0.949598964 C8.57434096,0.521683137 9.20427816,0.457831711 9.63219399,0.806982811 C9.68441751,0.849593761 9.73219919,0.897375442 9.77481014,0.949598964 Z" id="三角形" fill="#FFFFFF"></path>
                <rect id="矩形" fill="#FFFFFF" x="8.25" y="3.15151515" width="1.5" height="15.7575758" rx="0.75"></rect>
            </g>
        </g>
    </g>
</svg>