<?xml version="1.0" encoding="UTF-8"?>
<svg width="48px" height="48px" viewBox="0 0 48 48" version="1.1" xmlns="http://www.w3.org/2000/svg" xmlns:xlink="http://www.w3.org/1999/xlink">
    <!-- Generator: Sketch 61.2 (89653) - https://sketch.com -->
    <title>ic_close_1</title>
    <desc>Created with Sketch.</desc>
    <g id="ic_close_1" stroke="none" stroke-width="1" fill="none" fill-rule="evenodd" opacity="0.800000012">
        <path d="M24,8 C25.1045695,8 26,8.8954305 26,10 L26,22 L38,22 C39.1045695,22 40,22.8954305 40,24 C40,25.1045695 39.1045695,26 38,26 L26,26 L26,38 C26,39.1045695 25.1045695,40 24,40 C22.8954305,40 22,39.1045695 22,38 L21.999,26 L10,26 C8.8954305,26 8,25.1045695 8,24 C8,22.8954305 8.8954305,22 10,22 L22,22 L22,10 C22,8.8954305 22.8954305,8 24,8 Z" id="形状结合" fill="#4ACABF" transform="translate(24.000000, 24.000000) rotate(-315.000000) translate(-24.000000, -24.000000) "></path>
    </g>
</svg>