<?xml version="1.0" encoding="UTF-8"?>
<svg width="44px" height="44px" viewBox="0 0 44 44" version="1.1" xmlns="http://www.w3.org/2000/svg" xmlns:xlink="http://www.w3.org/1999/xlink">
    <!-- Generator: Sketch 61.2 (89653) - https://sketch.com -->
    <title>ic_language_jianti</title>
    <desc>Created with Sketch.</desc>
    <g id="ic_language_jianti" stroke="none" stroke-width="1" fill="none" fill-rule="evenodd">
        <rect id="矩形" fill="#000000" fill-rule="nonzero" opacity="0" x="0" y="0" width="44" height="44"></rect>
        <path d="M24,18 L31,18 L31,24 L24,24 L24,18 Z M41,4.58333333 L41,39.4166667 C41,40.2875 40.2875,41 39.4166667,41 L4.58333333,41 C3.7125,41 3,40.2875 3,39.4166667 L3,4.58333333 C3,3.7125 3.7125,3 4.58333333,3 L39.4166667,3 C40.2875,3 41,3.7125 41,4.58333333 Z M35,14.6875 L24.0625,14.6875 L24.0625,10 L20.9375,10 L20.9375,14.6875 L10,14.6875 L10,27.1875 L20.9375,27.1875 L20.9375,35 L24.0625,35 L24.0625,27.1875 L35,27.1875 L35,14.6875 Z M13,24 L21,24 L21,18 L13,18 L13,24 Z" id="形状" fill="#FFFFFF" fill-rule="nonzero"></path>
    </g>
</svg>