<?xml version="1.0" encoding="UTF-8"?>
<svg width="66px" height="66px" viewBox="0 0 66 66" version="1.1" xmlns="http://www.w3.org/2000/svg" xmlns:xlink="http://www.w3.org/1999/xlink">
    <!-- Generator: Sketch 61.2 (89653) - https://sketch.com -->
    <title>ic_ketiqu</title>
    <desc>Created with Sketch.</desc>
    <g id="ic_ketiqu" stroke="none" stroke-width="1" fill="none" fill-rule="evenodd">
        <g id="存钱罐" fill-rule="nonzero">
            <rect id="矩形" fill="#000000" opacity="0" x="0" y="0" width="66" height="66"></rect>
            <g id="现金收入" transform="translate(3.000000, 3.000000)">
                <rect id="矩形" fill="#000000" opacity="0" x="0" y="0" width="60" height="60"></rect>
                <g id="编组-10" transform="translate(0.983607, 0.000000)" fill="#FFFFFF">
                    <path d="M42.1703963,23.8411391 C51.3652693,23.8420137 58.8294798,31.1230484 58.816664,40.0792826 C58.802828,49.0095399 51.3465143,56.2770176 42.1950739,56.2808676 C32.9992139,56.2847144 25.5280936,49.0085778 25.5330267,40.0542678 C25.5389517,31.1038063 32.9923042,23.840177 42.1703963,23.8411391 Z M43.2209025,28.6470248 L41.6518167,28.6470248 L41.6518167,30.6174379 C40.2729232,30.7135556 39.1555439,31.0739971 38.2521309,31.7227916 C37.0396556,32.5638216 36.4453049,33.7652931 36.4453049,35.3512353 C36.4453049,37.129413 37.2536218,38.475061 38.9178037,39.3881793 L41.6518167,40.3974153 L41.6518167,46.0203016 C40.9148219,45.9241839 40.3442453,45.6838896 39.9400868,45.2994187 C39.3932842,44.7707713 39.0842219,43.857653 38.9891258,42.6081227 L36.2313387,42.6081227 C36.3739828,44.5785359 36.9445595,46.044331 37.9430686,47.0055082 C38.7989335,47.8225087 40.0351829,48.2790679 41.6518167,48.399215 L41.6518167,50.5138047 L43.2209025,50.5138047 L43.2209025,48.399215 C44.6711181,48.3030973 45.8598195,47.9426559 46.8107805,47.3178907 C48.094578,46.4528313 48.7364767,45.1792716 48.7364767,43.4731822 C48.7364767,41.8113575 47.9896693,40.5161646 46.5162689,39.5876036 L46.2639779,39.4362382 C46.1213338,39.3401205 45.0990506,38.9556496 43.2209025,38.2587962 L43.2209025,32.9723219 C43.8152532,33.0444102 44.2907337,33.2126162 44.6473441,33.4769399 C45.2179207,33.8854402 45.5745311,34.5822936 45.7171753,35.5915296 L48.4274143,35.5915296 C48.1896741,33.8373813 47.5953234,32.5638216 46.6205883,31.7948799 C45.7884974,31.1220559 44.6473441,30.7135556 43.2209025,30.6174379 L43.2209025,28.6470248 Z M43.2209025,40.9741216 C43.3159986,40.998151 43.3873207,41.0221805 43.4824168,41.0702393 C45.1228246,41.6469456 45.9549156,42.4879756 45.9549156,43.5692999 C45.9549156,44.362271 45.6220792,44.9870362 44.9564065,45.4195659 C44.4809259,45.7319484 43.8865753,45.9241839 43.2209025,46.0203016 L43.2209025,40.9741216 Z M41.6518167,32.9482925 L41.6518167,37.6580605 C40.0351829,37.0332953 39.226866,36.2643536 39.226866,35.3512353 C39.226866,34.4621465 39.5359284,33.8133519 40.1778271,33.4288811 C40.5344375,33.1885868 41.0336921,33.0203808 41.6518167,32.9482925 Z" id="形状结合"></path>
                    <path d="M7.80168474,5.10644856 C8.26949344,5.46374664 8.74772525,5.87064444 9.23420081,6.32694199 C9.72181344,6.78323953 10.1604374,7.3088367 10.5500727,7.90473349 C10.7448903,8.22253177 10.9793158,8.57982985 11.2523069,8.97672771 C11.5252979,9.37362557 11.778485,9.77062343 12.0129105,10.1675213 C12.2859016,10.6040189 12.5588927,11.0603165 12.831789,11.5364139 L24.9403305,11.5364139 C25.2133215,11.1395161 25.4665087,10.7228183 25.7009342,10.2862207 C25.8957518,9.92892258 26.1103734,9.57152451 26.3447989,9.21422643 C26.5781821,8.85692836 26.7928036,8.53913007 26.9886636,8.26203156 C27.3782989,7.70673455 27.7689764,7.18013739 28.1587065,6.68424006 C28.5483417,6.18834273 29.1141278,5.70234535 29.8548328,5.22624792 C30.1674317,5.02724899 30.4299049,4.76995037 30.6445265,4.45215209 C30.859148,4.1343538 30.9955962,3.8177555 31.0539657,3.49995722 C31.1123351,3.18215893 31.0737696,2.87436059 30.9373214,2.57746219 C30.8008733,2.27946379 30.5383054,2.05186502 30.1476278,1.89356587 C29.7965581,1.77476651 29.4943823,1.73526672 29.2411951,1.77476651 C28.988008,1.8143663 28.7337786,1.88366592 28.4805914,1.98366538 C28.2274043,2.08266485 27.9637941,2.19256426 27.6908978,2.31136362 C27.4179067,2.43016298 27.0866409,2.48946266 26.6959633,2.48946266 C26.3063281,2.48946266 25.9843483,2.42016303 25.7311612,2.28056379 C25.4779741,2.14206453 25.2435486,1.97266544 25.028927,1.77476651 C24.8143055,1.57686758 24.5903031,1.3679687 24.3558776,1.14916988 C24.1224944,0.930371059 23.8098955,0.762171965 23.4202602,0.643372605 C22.6409896,0.325574318 22.0168341,0.266274637 21.5491202,0.465273565 C21.0813115,0.664272493 20.6135028,0.980970787 20.1446518,1.41746844 C19.7550165,1.8143663 19.4424176,2.0925648 19.2090344,2.25086395 C19.0923902,2.33006352 18.9944128,2.36956331 18.9162394,2.36956331 C18.6818139,2.25086395 18.4682346,2.11226469 18.2723747,1.95286555 C18.077557,1.8330662 17.8921202,1.70436689 17.7170118,1.56586764 C17.5419981,1.42736838 17.3763652,1.25906929 17.2200183,1.06007036 C16.9084617,0.742272073 16.4407478,0.534473192 15.8165922,0.434473731 C15.1925315,0.335474264 14.6277877,0.444373678 14.1204659,0.762171965 C13.4578396,1.19866961 12.9900309,1.56596764 12.7170398,1.86386603 C12.4440488,2.16186442 12.0346096,2.36966331 11.4887222,2.48836267 C11.1771656,2.56756224 10.8354767,2.54776235 10.4656454,2.42896299 C10.095814,2.31026363 9.71546481,2.19146427 9.32478722,2.07166491 C8.93515195,1.95286555 8.56418354,1.87376598 8.21311382,1.8330662 C7.85995947,1.79126642 7.54840286,1.87156599 7.27541181,2.06946492 C6.72942969,2.50596257 6.55441599,3.03155974 6.74923363,3.64725642 C6.94414602,4.26205311 7.2953105,4.74905049 7.80168474,5.10644856 Z" id="路径"></path>
                    <path d="M34.4086659,21.6704768 C34.3775567,21.6362863 34.3483918,21.5981883 34.3172826,21.5640866 C33.3902814,20.5593307 32.4894402,19.6873403 31.6167918,18.9472275 C30.5624373,18.1016126 29.6344639,17.2989801 28.8347276,16.5412836 C28.0340192,15.7835871 27.3615478,15.1049284 26.8164297,14.5053961 C26.1614573,13.8355292 25.6163392,13.2193902 25.180015,12.6550253 L12.9030158,12.6550253 C12.4297494,13.2545575 11.8846313,13.8882802 11.2666011,14.5581472 C10.7573646,15.1576794 10.1209517,15.8187545 9.35709701,16.5412836 C8.59333075,17.2638127 7.7381812,18.0303899 6.79262053,18.8408374 C5.70132386,19.7577638 4.692661,20.7967103 3.76468764,21.9606074 C2.83671428,23.1245045 2.06411017,24.4017186 1.44607991,25.7941147 C0.828049653,27.1865107 0.400474879,28.675617 0.164327753,30.2623215 C-0.0718193727,31.8480492 -0.0270998945,33.5050884 0.300342135,35.2324623 C0.591902527,36.7831115 1.1914617,38.3434405 2.10096397,39.9115845 C3.01046624,41.4797285 4.23786568,42.8985889 5.7838693,44.1678992 C7.32987292,45.4363215 9.21215641,46.4684298 11.4306314,47.2612937 C13.6491064,48.0541575 16.1951118,48.4505894 19.0685592,48.4505894 C20.7506656,48.4505894 22.3112516,48.3109857 23.7766541,48.0629493 C22.5230947,45.5153592 21.8011314,42.6592555 21.8021036,39.6283808 C21.8080249,31.3470921 27.0729923,24.3137114 34.4086659,21.6704768 Z" id="路径"></path>
                </g>
            </g>
        </g>
    </g>
</svg>