<?xml version="1.0" encoding="UTF-8"?>
<svg width="66px" height="66px" viewBox="0 0 66 66" version="1.1" xmlns="http://www.w3.org/2000/svg" xmlns:xlink="http://www.w3.org/1999/xlink">
    <!-- Generator: Sketch 61.2 (89653) - https://sketch.com -->
    <title>ic_shouyi</title>
    <desc>Created with Sketch.</desc>
    <g id="ic_shouyi" stroke="none" stroke-width="1" fill="none" fill-rule="evenodd">
        <g id="存钱罐" fill-rule="nonzero">
            <rect id="矩形" fill="#000000" opacity="0" x="0" y="0" width="66" height="66"></rect>
            <path d="M40.3977012,23.1408865 C38.3780618,22.3838592 36.247197,22 34.0646047,22 C32.9665874,22 31.5003524,22.215324 29.7065668,22.6400857 C29.2195801,22.7553456 28.9130722,23.2668975 29.0219721,23.7825939 C29.1308153,24.2983503 29.6139452,24.623048 30.1009319,24.5076079 C31.7420308,24.1190638 33.1126381,23.9136502 34.0646047,23.9136502 C36.0412513,23.9136502 37.9691766,24.2606311 39.7947814,24.9449227 C39.8944362,24.9822215 39.9961895,25 40.0962413,25 C40.4683159,25 40.8167956,24.7547049 40.9479859,24.3621366 C41.1144553,23.8639785 40.868126,23.3172299 40.3977012,23.1408865 Z M22,28 C22,29.1045695 22.4477153,30 23,30 C23.5522847,30 24,29.1045695 24,28 C24,26.8954305 23.5522847,26 23,26 C22.4477153,26 22,26.8954305 22,28 L22,28 Z M33.000032,5 C17.5360598,5 5,17.5359671 5,32.9999679 C5,48.4639048 17.5360598,61 33.000032,61 C48.4640683,61 61,48.4639048 61,32.9999679 C61,17.5359671 48.4640683,5 33.000032,5 Z M52.8109284,40.8963044 C52.2019709,40.8543655 51.0305188,40.6434277 49.7240082,39.6990686 C49.3331541,41.170433 48.7093751,42.6635016 47.8260815,44.1318139 C47.3146572,44.9818389 44.9688665,49 43.7446234,49 C41.83293,49 38.8938915,49 38.8938915,49 C38.4075027,49 38.0572828,48.5797635 38.115736,48.0881406 L38.1929521,46.8352878 C38.1963383,46.340104 37.807094,46.005441 37.3280327,46.0909579 C37.3280327,46.0909579 35.2379819,46.4652989 33.6626306,46.4652989 C32.6201311,46.4652989 31.4209234,46.3248433 31.4209234,46.3248433 C30.9378098,46.2673611 30.4525867,46.6196023 30.3426191,47.1020687 L30.056126,48.1287795 C29.9003062,48.5979069 29.374893,49 28.8884487,49 L24.9217321,49 C24.4353988,49 24.0689141,48.5778984 24.107994,48.0842407 L24.0558135,44.6982147 C24.0024673,44.20597 23.7961878,43.7007255 23.5984015,43.5754176 C23.5984015,43.5754176 23.5966251,43.5754176 23.4199886,43.4558184 C20.7334704,41.6363388 19.8911441,38.7972701 16.5207839,38.7887919 C15.6920577,38.7868137 15.3311242,37.8493502 15.3311242,37.8493502 C15.1566526,37.3871184 15,36.6037321 15,36.1084918 L15,32.4651239 C15,31.9698837 15.156819,31.1865539 15.3315682,30.7244352 C15.3315682,30.7244352 15.7007174,29.7847673 16.5309978,29.7847673 C18.973933,29.7847673 18.7248545,28.1059129 20.0360836,26.3568024 C20.6492599,25.5414251 21.6182628,24.6919653 21.6182628,24.6919653 C21.9869124,24.3688892 22.0603537,23.7724756 21.7815766,23.3667087 C21.7815766,23.3667087 19.5701784,20.1479295 18.9305788,19.3306304 C18.7784228,19.1361968 18.8514199,18.984776 19.0950584,19.0012238 C22.1845321,19.2088833 25.2079476,21.355339 25.2079476,21.355339 C25.6069618,21.6385676 26.314063,21.7524582 26.779413,21.6084417 C26.779413,21.6084417 31.053606,20.2855589 33.6626861,20.2855589 C41.4736617,20.2856154 47.915732,25.3742348 49.7248408,32.0394614 C50.1593822,33.6403728 50.3263043,35.3322271 50.1810871,37.0663028 C50.7816068,38.2542126 51.8323776,40.0951703 52.8485649,40.7150967 C53.057953,40.8428351 53.0546223,40.9131477 52.8109284,40.8963044 Z" id="形状" fill="#FFFFFF"></path>
        </g>
    </g>
</svg>